<?xml version="1.0" standalone="no"?>
<!DOCTYPE svg PUBLIC "-//W3C//DTD SVG 20010904//EN"
 "http://www.w3.org/TR/2001/REC-SVG-20010904/DTD/svg10.dtd">
<svg version="1.0" xmlns="http://www.w3.org/2000/svg"
 width="306.000000pt" height="330.000000pt" viewBox="0 0 306.000000 330.000000"
 preserveAspectRatio="xMidYMid meet">

<g transform="translate(0.000000,330.000000) scale(0.100000,-0.100000)"
fill="#000000" stroke="none">
<path d="M35 3241 c-15 -25 9 -95 56 -164 27 -40 49 -83 49 -98 0 -14 -18 -73
-40 -132 -46 -121 -50 -176 -24 -317 27 -148 33 -212 34 -342 0 -114 2 -130
20 -148 25 -25 75 -26 116 -1 23 14 38 36 54 78 33 86 24 171 -40 367 -46 144
-50 164 -50 253 0 80 4 104 20 131 22 36 32 38 86 16 64 -26 65 -29 43 -91
-10 -31 -19 -66 -19 -78 0 -38 29 -94 95 -186 60 -84 69 -105 109 -249 33
-118 76 -159 133 -129 39 21 53 60 53 147 0 105 -25 176 -108 304 -109 169
-120 206 -68 229 43 20 75 4 97 -49 11 -26 35 -62 52 -80 57 -60 77 -65 254
-72 l162 -5 48 -34 c133 -94 166 -113 203 -118 89 -12 118 59 62 148 -74 115
-186 164 -419 180 -221 16 -244 34 -104 83 80 28 84 28 117 12 46 -21 89 -20
144 5 125 58 202 69 338 50 33 -5 85 -2 140 6 93 15 109 13 219 -28 59 -22 63
-23 96 -7 81 39 125 101 110 156 -7 27 -79 44 -130 30 -49 -13 -151 7 -233 46
-57 27 -75 31 -145 30 -68 0 -90 -5 -147 -32 -78 -37 -198 -72 -248 -72 -54 0
-132 -42 -173 -92 -32 -39 -47 -48 -110 -66 -111 -31 -118 -32 -124 -16 -8 23
42 69 131 122 43 26 96 63 119 82 37 32 97 113 97 132 0 4 -67 8 -149 8 l-149
0 -25 -52 c-17 -35 -45 -68 -80 -96 -82 -65 -108 -96 -128 -154 -17 -52 -18
-53 -60 -56 -23 -2 -46 1 -51 6 -6 6 5 34 26 73 42 77 54 153 36 228 l-12 51
-93 0 c-52 0 -96 -4 -99 -8 -2 -4 2 -53 9 -107 15 -105 9 -161 -20 -185 -11
-9 -22 -6 -57 18 -73 51 -125 114 -184 225 -19 35 -34 55 -39 48z"/>
<path d="M2475 3238 c-3 -7 -16 -53 -30 -103 -36 -126 -108 -267 -174 -338
-105 -113 -512 -352 -511 -299 1 18 24 35 170 118 211 120 301 189 354 273 51
79 123 245 132 304 l7 42 -23 -20 c-34 -30 -92 -119 -140 -215 -75 -149 -248
-305 -445 -401 -126 -62 -186 -108 -244 -185 l-46 -61 -95 -6 c-253 -16 -468
-159 -575 -382 -48 -101 -65 -177 -65 -297 0 -269 138 -492 380 -614 73 -36
220 -74 293 -74 34 0 37 -2 37 -29 0 -16 -5 -31 -12 -33 -6 -2 -43 2 -82 9
-100 20 -163 6 -305 -68 -139 -72 -159 -73 -308 -20 -137 48 -276 76 -349 68
-106 -11 -194 -89 -194 -173 0 -91 71 -108 249 -60 121 32 137 31 236 -22 67
-35 75 -37 165 -37 138 0 184 23 320 166 105 109 105 109 153 109 58 0 70 -19
38 -58 -12 -15 -30 -47 -41 -72 -45 -100 -59 -119 -161 -220 -95 -94 -159
-182 -159 -220 0 -15 417 -14 426 2 4 6 11 81 15 165 9 175 22 218 83 271 20
17 41 32 46 32 23 0 100 -41 100 -53 0 -8 -12 -41 -27 -73 -25 -52 -28 -71
-28 -159 0 -55 6 -121 14 -147 l14 -48 193 0 c169 0 194 2 194 15 0 26 -28 71
-108 178 -43 56 -84 117 -91 134 -17 42 -9 65 21 59 13 -3 44 -8 71 -11 40 -5
50 -11 63 -38 27 -51 45 -70 149 -158 56 -47 111 -103 128 -131 l30 -48 183 0
c101 0 184 4 184 8 0 26 -86 136 -145 186 -80 68 -154 107 -261 137 -83 24
-110 37 -97 50 4 4 43 16 85 28 61 16 83 18 105 10 16 -6 102 -10 203 -10 175
1 175 1 238 -29 35 -16 75 -39 89 -50 14 -11 30 -20 34 -20 5 0 9 97 9 215 0
243 6 227 -81 201 -67 -21 -117 -48 -200 -111 -68 -51 -109 -68 -109 -46 0 5
15 33 33 64 17 30 39 69 49 85 11 21 28 34 53 41 20 5 67 29 103 53 36 24 84
50 106 59 l41 17 3 146 c1 80 0 146 -4 146 -28 0 -83 -55 -140 -142 -39 -60
-69 -97 -75 -91 -10 10 18 124 53 213 29 75 61 116 119 152 49 30 64 58 32 58
-32 0 -122 -59 -148 -97 -14 -21 -41 -90 -61 -153 -107 -351 -135 -420 -213
-527 -31 -42 -115 -105 -158 -118 -40 -11 -26 20 26 60 110 84 225 268 256
410 9 44 46 184 81 310 70 248 77 307 49 399 -27 89 -87 127 -165 106 -51 -14
-83 -46 -98 -98 -17 -58 -15 -112 14 -299 43 -282 38 -324 -62 -524 -45 -90
-63 -116 -126 -173 -76 -71 -126 -100 -266 -156 -58 -23 -87 -40 -94 -56 -15
-32 -32 -36 -102 -23 -86 16 -95 28 -57 71 25 29 42 37 93 47 125 25 232 69
300 125 183 151 284 353 234 469 -21 50 -51 71 -98 70 -79 -4 -111 -46 -147
-198 -25 -101 -62 -189 -94 -223 -32 -35 -85 -59 -168 -77 -115 -25 -207 -65
-254 -110 -23 -22 -44 -46 -47 -54 -2 -9 -9 -11 -17 -7 -13 8 -10 40 10 118 8
30 16 39 47 49 75 24 174 84 241 145 146 135 220 303 220 499 1 281 -171 537
-427 635 -118 45 -112 37 -54 71 28 16 102 43 164 60 257 69 345 110 487 224
109 86 143 129 176 222 14 37 25 69 25 71 0 2 4 1 9 -3 11 -6 6 -44 -20 -167
-26 -119 -42 -149 -96 -178 -25 -13 -52 -34 -60 -47 -14 -21 -14 -25 1 -42 20
-22 20 -30 -3 -60 l-19 -24 -55 17 c-31 10 -64 16 -74 14 -32 -6 -28 -40 8
-71 33 -28 34 -28 14 -43 -11 -8 -31 -17 -45 -21 -46 -10 -70 -32 -70 -63 0
-39 29 -55 74 -40 22 7 49 31 80 71 54 69 67 77 97 55 38 -26 59 -5 60 62 0
50 6 68 53 147 37 64 59 91 74 93 35 5 44 34 22 69 -15 25 -17 38 -9 69 4 22
11 82 15 134 4 52 10 102 15 110 15 30 24 -45 24 -215 0 -208 -3 -216 -157
-457 -115 -178 -148 -239 -184 -334 -27 -73 -57 -220 -48 -246 14 -45 74 1
134 104 84 143 210 324 285 408 41 47 79 86 85 88 5 2 20 -4 34 -14 21 -13 26
-24 26 -55 0 -29 -5 -41 -17 -45 -38 -11 -68 -30 -70 -44 -6 -30 15 -44 60
-42 38 1 46 -2 67 -30 20 -27 22 -36 13 -68 -19 -72 11 -95 62 -49 14 13 25
15 35 9 40 -26 42 18 2 52 -44 37 -46 46 -18 79 14 17 26 39 26 49 0 26 -34
34 -64 15 -33 -22 -46 -12 -46 35 0 38 3 41 51 65 64 33 63 58 -4 79 -17 5
-17 7 2 43 10 21 33 55 50 77 17 21 31 44 31 50 0 18 -70 68 -86 62 -13 -5
-15 -16 -9 -56 6 -44 3 -56 -24 -104 -35 -60 -55 -81 -71 -71 -15 9 -13 20 25
114 44 112 54 196 38 331 -16 137 -21 155 -82 283 -51 107 -52 108 -84 105
-28 -3 -32 -6 -29 -28 2 -14 20 -61 39 -105 58 -128 83 -234 83 -348 0 -183
-32 -257 -187 -431 -112 -125 -164 -198 -217 -303 -20 -40 -41 -73 -46 -73
-20 0 -9 47 31 130 49 102 86 154 202 284 103 115 130 155 150 223 43 143 28
286 -51 488 -28 72 -53 138 -56 148 -3 9 -14 17 -25 17 -15 0 -22 -9 -27 -35
-3 -19 -10 -35 -16 -35 -5 0 -16 16 -24 35 -15 37 -22 42 -29 23z m-822 -1052
c381 -143 490 -619 207 -903 -54 -55 -141 -114 -185 -127 -17 -5 -25 4 -49 57
-16 34 -30 65 -30 69 -1 4 31 23 70 42 86 41 169 120 204 196 22 48 23 54 9
78 -12 22 -22 27 -54 27 -36 0 -42 -4 -71 -49 -45 -68 -78 -99 -137 -132 -47
-26 -61 -29 -147 -29 -83 0 -101 3 -145 27 -55 28 -123 96 -150 147 -19 38
-50 52 -85 39 -53 -20 -53 -64 -2 -144 59 -91 122 -138 253 -192 22 -9 27 -17
27 -45 0 -19 10 -53 22 -76 12 -24 19 -45 16 -49 -12 -11 -118 20 -188 55
-133 67 -246 206 -283 348 -20 78 -19 217 1 286 53 177 191 324 357 378 88 28
101 30 202 26 66 -2 108 -10 158 -29z"/>
<path d="M1203 1921 c-40 -25 -53 -49 -53 -99 0 -129 184 -151 219 -26 26 96
-82 178 -166 125z"/>
<path d="M1601 1904 c-103 -87 19 -246 135 -175 95 58 52 201 -61 201 -32 0
-51 -7 -74 -26z"/>
<path d="M2770 3247 c0 -18 42 -123 65 -162 29 -51 107 -135 125 -135 5 0 10
22 10 49 0 45 -4 53 -42 90 -24 22 -56 66 -73 98 -24 47 -35 59 -57 61 -16 2
-28 1 -28 -1z"/>
<path d="M2880 3237 c0 -17 68 -117 80 -117 6 0 10 29 10 65 l0 65 -45 0 c-30
0 -45 -4 -45 -13z"/>
<path d="M1641 2815 c-61 -78 -9 -179 78 -149 36 13 74 72 66 104 -15 66 -105
94 -144 45z"/>
<path d="M377 2072 c-23 -26 -22 -94 1 -115 25 -23 78 -21 102 3 29 29 30 82
3 113 -22 23 -85 23 -106 -1z"/>
<path d="M611 1885 c-96 -58 -191 -117 -210 -132 -165 -122 -263 -233 -331
-374 -38 -78 -50 -129 -32 -129 5 0 32 29 61 65 69 85 231 237 306 288 106 72
222 174 249 221 27 46 39 55 51 36 10 -16 -34 -96 -74 -136 -20 -20 -88 -75
-151 -122 -63 -47 -155 -122 -203 -166 -86 -78 -213 -220 -236 -263 -12 -24
-15 -143 -3 -143 4 0 28 21 52 46 25 25 124 117 221 204 266 239 435 442 478
574 27 80 31 129 11 133 -8 2 -93 -44 -189 -102z"/>
<path d="M109 1873 c-58 -62 -79 -94 -79 -122 l1 -26 22 25 c12 14 32 39 44
55 14 20 25 27 32 20 6 -7 -8 -39 -42 -95 -48 -81 -51 -89 -54 -165 -4 -76 -3
-79 13 -60 49 59 134 287 134 359 0 59 -21 61 -71 9z"/>
<path d="M701 1362 c-5 -9 -7 -29 -4 -43 6 -34 1 -36 -90 -51 l-75 -11 -32 37
c-41 46 -74 46 -78 0 -2 -19 3 -36 12 -44 26 -21 18 -37 -38 -80 l-55 -41 -40
23 c-32 18 -44 21 -58 12 -28 -17 -27 -49 2 -77 23 -21 25 -28 16 -46 -10 -18
-21 -21 -75 -21 -70 0 -90 -13 -84 -52 2 -17 11 -24 30 -26 34 -4 37 -34 9
-71 -17 -22 -21 -23 -51 -12 -24 8 -36 8 -46 0 -20 -17 -17 -29 13 -61 l27
-28 -18 -48 c-29 -73 -37 -160 -29 -289 8 -112 9 -118 31 -121 14 -2 22 2 22
11 0 7 18 28 40 46 22 17 40 36 40 41 0 20 -32 40 -55 34 -17 -4 -26 0 -34 14
-16 30 -4 49 35 57 60 11 57 61 -4 77 -35 9 -38 19 -21 66 10 28 14 30 52 29
37 -2 42 1 45 21 2 13 -4 34 -12 47 -9 13 -16 33 -16 44 0 23 100 176 160 244
45 51 68 58 88 27 7 -11 21 -20 31 -20 31 0 43 24 36 74 l-7 46 57 26 c32 14
61 21 66 17 4 -4 9 -21 11 -37 7 -64 70 -59 76 7 4 50 23 63 71 48 52 -15 64
-31 51 -66 -25 -65 49 -113 79 -51 20 43 0 100 -45 129 -25 16 -37 33 -46 65
-15 61 -66 93 -87 54z"/>
<path d="M581 555 c-125 -85 -205 -150 -234 -193 -15 -21 -27 -41 -27 -45 0
-4 20 -7 44 -7 43 0 45 2 143 110 92 102 123 128 123 98 0 -7 -34 -53 -75
-103 -41 -49 -75 -93 -75 -97 0 -4 20 -8 45 -8 44 0 46 1 82 58 53 81 105 213
91 229 -17 21 -32 16 -117 -42z"/>
<path d="M905 556 c-14 -10 -16 -21 -11 -47 17 -85 5 -110 -46 -91 -23 8 -35
9 -45 1 -18 -15 -16 -26 6 -48 11 -11 21 -27 23 -37 5 -29 38 -29 65 0 13 14
33 26 44 26 30 0 79 28 79 45 0 9 -11 21 -25 27 -21 10 -25 18 -25 57 0 25 -4
51 -8 57 -12 18 -39 23 -57 10z"/>
<path d="M50 125 c0 -40 4 -55 14 -55 9 0 12 8 8 25 -6 34 20 34 38 0 7 -14
20 -25 27 -25 10 0 7 7 -7 22 -19 21 -19 24 -5 35 22 15 15 47 -10 51 -20 4
-20 3 -1 -11 24 -18 13 -37 -21 -37 -22 0 -25 4 -21 25 4 17 1 25 -8 25 -10 0
-14 -15 -14 -55z"/>
<path d="M627 153 c-6 -11 4 -83 12 -83 7 0 6 78 -2 86 -3 3 -7 2 -10 -3z"/>
<path d="M2746 145 c4 -8 8 -15 10 -15 2 0 4 7 4 15 0 8 -4 15 -10 15 -5 0 -7
-7 -4 -15z"/>
<path d="M2826 147 c3 -10 9 -15 12 -12 3 3 0 11 -7 18 -10 9 -11 8 -5 -6z"/>
<path d="M2884 141 c0 -11 4 -17 8 -15 4 3 8 12 8 20 0 8 -4 14 -8 14 -4 0 -8
-9 -8 -19z"/>
<path d="M2921 144 c0 -11 3 -14 6 -6 3 7 2 16 -1 19 -3 4 -6 -2 -5 -13z"/>
<path d="M2773 134 c-3 -9 3 -24 18 -37 l23 -22 -18 22 c-10 12 -16 29 -13 38
4 8 4 15 1 15 -2 0 -7 -7 -11 -16z"/>
<path d="M223 104 c0 -20 4 -34 11 -34 8 0 11 11 8 30 -6 43 -18 45 -19 4z"/>
<path d="M270 128 c0 -10 10 -20 24 -24 14 -3 27 -13 29 -22 4 -15 5 -15 6 0
0 10 -9 23 -21 29 -13 7 -26 17 -30 23 -5 7 -8 4 -8 -6z"/>
<path d="M315 130 c3 -5 8 -10 11 -10 2 0 4 5 4 10 0 6 -5 10 -11 10 -5 0 -7
-4 -4 -10z"/>
<path d="M360 129 c0 -5 5 -7 10 -4 6 3 10 8 10 11 0 2 -4 4 -10 4 -5 0 -10
-5 -10 -11z"/>
<path d="M405 118 c1 -13 3 -29 4 -35 0 -7 5 -13 9 -13 4 0 6 16 4 35 -2 19
-8 35 -12 35 -4 0 -6 -10 -5 -22z"/>
<path d="M452 128 c3 -7 14 -17 26 -23 12 -5 22 -16 22 -23 0 -7 5 -10 10 -7
17 11 11 25 -15 35 -14 5 -25 14 -25 20 0 5 -5 10 -11 10 -6 0 -9 -6 -7 -12z"/>
<path d="M539 124 c-17 -21 0 -48 32 -51 l24 -3 -24 10 c-18 8 -22 16 -19 35
6 29 5 30 -13 9z"/>
<path d="M591 124 c0 -11 3 -14 6 -6 3 7 2 16 -1 19 -3 4 -6 -2 -5 -13z"/>
<path d="M689 108 c4 -17 13 -34 21 -36 12 -4 13 -2 3 9 -7 7 -13 23 -13 36 0
13 -4 23 -9 23 -5 0 -6 -14 -2 -32z"/>
<path d="M750 105 c0 -19 4 -35 8 -35 4 0 6 16 4 35 -2 19 -6 35 -8 35 -2 0
-4 -16 -4 -35z"/>
<path d="M2946 115 c4 -8 1 -15 -5 -15 -6 0 -11 -4 -11 -10 0 -5 7 -7 15 -4
16 7 21 44 5 44 -5 0 -7 -7 -4 -15z"/>
<path d="M180 100 c-12 -7 -12 -12 -2 -22 9 -9 12 -9 12 4 0 9 6 19 13 21 6 3
8 6 2 6 -5 0 -17 -4 -25 -9z"/>
<path d="M361 96 c-8 -10 -9 -16 -1 -21 5 -3 10 0 10 9 0 8 6 17 13 19 7 4 8
6 1 6 -6 1 -17 -5 -23 -13z"/>
<path d="M270 80 c0 -5 5 -10 11 -10 5 0 7 5 4 10 -3 6 -8 10 -11 10 -2 0 -4
-4 -4 -10z"/>
</g>
</svg>
